M48
;Layer_Color=9474304
;FILE_FORMAT=2:5
INCH,LZ
;TYPE=PLATED
T1F00S00C0.03000
T2F00S00C0.03150
T3F00S00C0.03346
T4F00S00C0.03543
T5F00S00C0.11811
%
T01
X0065382Y0114882
Y0124882
Y0134882
X0075382
Y0124882
Y0114882
T02
X0153382Y0012882
Y0022882
Y0054382
Y0064382
Y0095882
Y0105882
Y0137382
Y0147382
T03
X0048882Y0017882
X0066382
Y0047882
X0048882
X0048382Y0148382
Y0161882
X0078382
Y0148382
X0147882Y0161382
X0177882
Y0120215
X0147882
Y0079049
X0177882
Y0037882
X0147882
T04
X0138Y0006
X0092882Y0016382
Y0026382
Y0036382
Y0046382
Y0056382
Y0066382
Y0076382
Y0086382
Y0096382
Y0106382
Y0116382
Y0126382
Y0136382
Y0146382
X0022382Y0109882
X0012382
X0015882Y0091882
Y0086882
Y0081882
X0026882Y0057882
Y0047882
Y0037882
Y0027882
Y0017882
Y0007882
X0122882Y0016382
Y0026382
Y0036382
Y0046382
Y0056382
Y0066382
Y0076382
Y0086382
Y0096382
Y0106382
Y0116382
Y0126382
Y0136382
Y0146382
X0138Y0036
Y0026
Y0016
X0125882Y0180882
Y0190882
X0103457Y0182181
Y0169583
X0095583Y0175882
X0050882Y0180882
Y0190882
X0031457Y0182181
Y0169583
X0023583Y0175882
T05
X0008382Y0009382
X0173882Y0008882
X0172382Y0196882
X0009382
M30
